<svg version="1.1" id="Layer_1" xmlns="http://www.w3.org/2000/svg" xmlns:xlink="http://www.w3.org/1999/xlink" x="0px" y="0px"
	 width="100%" viewBox="0 0 219 202" enable-background="new 0 0 219 202" xml:space="preserve">
<path fill="#FEFDFC" opacity="1.000000" stroke="none" 
	d="
M131.000000,203.000000 
	C87.333336,203.000000 44.166672,203.000000 1.000006,203.000000 
	C1.000004,135.666672 1.000004,68.333344 1.000002,1.000015 
	C73.999992,1.000010 146.999985,1.000010 219.999969,1.000005 
	C219.999985,68.333321 219.999985,135.666641 220.000000,202.999969 
	C190.500000,203.000000 161.000000,203.000000 131.000000,203.000000 
M77.307220,27.068275 
	C76.964493,27.332901 76.621773,27.597527 75.616783,27.808414 
	C74.023186,28.879143 72.429588,29.949873 70.835991,31.020601 
	C70.920349,30.614342 71.004715,30.208082 71.089073,29.801825 
	C67.592468,28.772823 64.141029,27.102108 60.589600,26.852207 
	C53.792164,26.373901 46.934238,26.560888 40.108150,26.735386 
	C32.259861,26.936012 27.976360,31.477108 27.971781,39.417591 
	C27.947466,81.569458 27.946909,123.721359 27.973026,165.873215 
	C27.977680,173.384308 32.460552,177.887009 40.059059,178.019363 
	C46.221703,178.126724 52.411263,178.370941 58.544254,177.931549 
	C62.936642,177.616867 67.255264,176.272629 71.464264,175.416733 
	C74.628235,176.228745 78.122070,177.662399 81.701378,177.923218 
	C87.667580,178.357971 93.688530,178.042053 99.686424,178.041458 
	C110.414673,178.040421 114.354599,174.119110 114.360115,163.323227 
	C114.375877,132.433380 114.365662,101.543518 114.365662,70.072563 
	C115.032677,71.422508 115.617073,72.230110 115.848877,73.128670 
	C123.782860,103.883522 131.685135,134.646545 139.587585,165.409546 
	C141.551819,173.055969 145.618149,175.623459 153.141785,173.783478 
	C158.922867,172.369629 164.656219,170.761703 170.428818,169.311829 
	C180.005432,166.906479 181.987640,163.285934 179.458206,153.875366 
	C175.121292,137.740143 171.006104,121.545059 166.843582,105.363327 
	C161.113846,83.089088 155.472748,60.791931 149.692612,38.530830 
	C148.008270,32.043819 143.389084,29.427877 136.906601,30.969721 
	C129.516388,32.727463 122.140144,34.543903 114.669289,36.356319 
	C112.375443,31.425198 109.653168,27.030626 103.918610,26.897903 
	C95.279366,26.697948 86.628029,27.020685 77.307220,27.068275 
z"/>
<path fill="#161716" opacity="1.000000" stroke="none" 
	d="
M77.981827,27.121237 
	C86.628029,27.020685 95.279366,26.697948 103.918610,26.897903 
	C109.653168,27.030626 112.375443,31.425198 114.669289,36.356319 
	C122.140144,34.543903 129.516388,32.727463 136.906601,30.969721 
	C143.389084,29.427877 148.008270,32.043819 149.692612,38.530830 
	C155.472748,60.791931 161.113846,83.089088 166.843582,105.363327 
	C171.006104,121.545059 175.121292,137.740143 179.458206,153.875366 
	C181.987640,163.285934 180.005432,166.906479 170.428818,169.311829 
	C164.656219,170.761703 158.922867,172.369629 153.141785,173.783478 
	C145.618149,175.623459 141.551819,173.055969 139.587585,165.409546 
	C131.685135,134.646545 123.782860,103.883522 115.848877,73.128670 
	C115.617073,72.230110 115.032677,71.422508 114.365662,70.072563 
	C114.365662,101.543518 114.375877,132.433380 114.360115,163.323227 
	C114.354599,174.119110 110.414673,178.040421 99.686424,178.041458 
	C93.688530,178.042053 87.667580,178.357971 81.701378,177.923218 
	C78.122070,177.662399 74.628235,176.228745 71.464264,175.416733 
	C67.255264,176.272629 62.936642,177.616867 58.544254,177.931549 
	C52.411263,178.370941 46.221703,178.126724 40.059059,178.019363 
	C32.460552,177.887009 27.977680,173.384308 27.973026,165.873215 
	C27.946909,123.721359 27.947466,81.569458 27.971781,39.417591 
	C27.976360,31.477108 32.259861,26.936012 40.108150,26.735386 
	C46.934238,26.560888 53.792164,26.373901 60.589600,26.852207 
	C64.141029,27.102108 67.592468,28.772823 71.089073,29.801825 
	C71.004715,30.208082 70.920349,30.614342 70.835991,31.020601 
	C72.429588,29.949873 74.023186,28.879143 76.270081,27.799290 
	C77.276192,27.567186 77.629005,27.344212 77.981827,27.121237 
M77.455589,59.192287 
	C76.970795,60.457073 76.066986,61.720535 76.062996,62.986835 
	C75.980995,89.033623 75.973198,115.080856 76.085869,141.127411 
	C76.091469,142.421143 77.321762,143.709579 78.655251,145.476334 
	C87.242439,145.476334 95.829628,145.476334 104.356659,145.476334 
	C104.356659,116.360779 104.356659,87.987640 104.356659,59.116322 
	C95.499237,59.116322 86.895020,59.116322 77.455589,59.192287 
M37.300896,81.500038 
	C37.300896,102.625107 37.300896,123.750168 37.300896,145.158722 
	C46.453350,145.158722 55.166199,145.158722 63.857578,145.158722 
	C63.857578,116.432251 63.857578,88.005768 63.857578,59.414871 
	C55.009880,59.414871 46.433769,59.414871 37.300739,59.414871 
	C37.300739,66.599716 37.300739,73.549950 37.300896,81.500038 
M154.111404,139.672958 
	C157.729019,138.673050 161.346634,137.673157 165.249374,136.594452 
	C158.801575,111.364464 152.435715,86.455101 146.037888,61.420597 
	C138.275833,63.332340 131.118912,65.095047 123.603134,66.946136 
	C130.142273,92.361519 136.541443,117.232925 142.968811,142.213913 
	C146.884796,141.320892 150.094513,140.588928 154.111404,139.672958 
M64.122818,40.644722 
	C64.010185,39.223747 63.897552,37.802776 63.760139,36.069225 
	C58.717152,36.069225 54.098499,36.070267 49.479851,36.069027 
	C37.141701,36.065720 37.138477,36.065380 37.336208,48.259331 
	C37.343651,48.718395 37.535030,49.174484 37.665207,49.738083 
	C46.450645,49.738083 55.147213,49.738083 64.123619,49.738083 
	C64.123619,46.855568 64.123619,44.230854 64.122818,40.644722 
M85.631332,36.066017 
	C76.947197,36.063526 76.433517,37.048759 78.526649,49.768021 
	C87.085388,49.768021 95.651634,49.768021 104.320015,49.768021 
	C104.320015,45.140053 104.320015,40.747616 104.320015,36.066738 
	C98.205307,36.066738 92.404655,36.066738 85.631332,36.066017 
M38.871849,154.970032 
	C38.495026,159.263275 38.074337,163.554062 37.835461,167.854980 
	C37.818707,168.156693 39.143902,168.823929 39.849457,168.830215 
	C47.755165,168.900726 55.661736,168.874756 63.844017,168.874756 
	C63.844017,163.971237 63.844017,159.618149 63.844017,154.955200 
	C55.663876,154.955200 47.737720,154.955200 38.871849,154.970032 
M102.156357,154.940857 
	C94.215622,154.940857 86.274887,154.940857 78.281479,154.940857 
	C78.281479,159.814667 78.281479,164.202927 78.281479,168.646286 
	C87.008339,168.646286 95.428513,168.646286 105.194328,168.646286 
	C104.451302,163.819565 103.768921,159.386765 102.156357,154.940857 
M145.941833,151.747498 
	C146.906433,156.187149 147.871033,160.626816 148.911621,165.416214 
	C156.766983,163.363571 163.879929,161.504929 171.282272,159.570663 
	C169.965332,154.590073 168.810013,150.220764 167.621857,145.727219 
	C160.295990,147.636765 153.441177,149.423508 145.941833,151.747498 
M119.088020,51.325741 
	C119.750679,53.485359 120.413338,55.644978 121.093605,57.861977 
	C128.720749,55.963245 135.996155,54.152077 143.635178,52.250389 
	C142.590317,47.976730 141.625031,44.028580 140.550949,39.635429 
	C132.946152,41.533184 125.514893,43.387630 117.712677,45.334644 
	C118.210419,47.369736 118.595612,48.944649 119.088020,51.325741 
z"/>
<path fill="#080808" opacity="1.000000" stroke="none" 
	d="
M77.644524,27.094757 
	C77.629005,27.344212 77.276192,27.567186 76.601212,27.826159 
	C76.621773,27.597527 76.964493,27.332901 77.644524,27.094757 
z"/>
<path fill="#FAFAF8" opacity="1.000000" stroke="none" 
	d="
M78.290802,59.116322 
	C86.895020,59.116322 95.499237,59.116322 104.356659,59.116322 
	C104.356659,87.987640 104.356659,116.360779 104.356659,145.476334 
	C95.829628,145.476334 87.242439,145.476334 78.348969,144.770569 
	C78.043571,137.067566 78.025299,130.070251 78.048920,123.073067 
	C78.120872,101.754120 78.208984,80.435234 78.290802,59.116322 
z"/>
<path fill="#FAFAF9" opacity="1.000000" stroke="none" 
	d="
M37.300819,81.000107 
	C37.300739,73.549950 37.300739,66.599716 37.300739,59.414871 
	C46.433769,59.414871 55.009880,59.414871 63.857578,59.414871 
	C63.857578,88.005768 63.857578,116.432251 63.857578,145.158722 
	C55.166199,145.158722 46.453350,145.158722 37.300896,145.158722 
	C37.300896,123.750168 37.300896,102.625107 37.300819,81.000107 
z"/>
<path fill="#FBFBFA" opacity="1.000000" stroke="none" 
	d="
M153.707825,139.764954 
	C150.094513,140.588928 146.884796,141.320892 142.968811,142.213913 
	C136.541443,117.232925 130.142273,92.361519 123.603134,66.946136 
	C131.118912,65.095047 138.275833,63.332340 146.037888,61.420597 
	C152.435715,86.455101 158.801575,111.364464 165.249374,136.594452 
	C161.346634,137.673157 157.729019,138.673050 153.707825,139.764954 
z"/>
<path fill="#FAF9F8" opacity="1.000000" stroke="none" 
	d="
M64.123215,41.125431 
	C64.123619,44.230854 64.123619,46.855568 64.123619,49.738083 
	C55.147213,49.738083 46.450645,49.738083 37.665207,49.738083 
	C37.535030,49.174484 37.343651,48.718395 37.336208,48.259331 
	C37.138477,36.065380 37.141701,36.065720 49.479851,36.069027 
	C54.098499,36.070267 58.717152,36.069225 63.760139,36.069225 
	C63.897552,37.802776 64.010185,39.223747 64.123215,41.125431 
z"/>
<path fill="#F9F9F8" opacity="1.000000" stroke="none" 
	d="
M86.117668,36.066376 
	C92.404655,36.066738 98.205307,36.066738 104.320015,36.066738 
	C104.320015,40.747616 104.320015,45.140053 104.320015,49.768021 
	C95.651634,49.768021 87.085388,49.768021 78.526649,49.768021 
	C76.433517,37.048759 76.947197,36.063526 86.117668,36.066376 
z"/>
<path fill="#F8F8F7" opacity="1.000000" stroke="none" 
	d="
M39.341705,154.962616 
	C47.737720,154.955200 55.663876,154.955200 63.844017,154.955200 
	C63.844017,159.618149 63.844017,163.971237 63.844017,168.874756 
	C55.661736,168.874756 47.755165,168.900726 39.849457,168.830215 
	C39.143902,168.823929 37.818707,168.156693 37.835461,167.854980 
	C38.074337,163.554062 38.495026,159.263275 39.341705,154.962616 
z"/>
<path fill="#F8F7F6" opacity="1.000000" stroke="none" 
	d="
M102.621445,154.947418 
	C103.768921,159.386765 104.451302,163.819565 105.194328,168.646286 
	C95.428513,168.646286 87.008339,168.646286 78.281479,168.646286 
	C78.281479,164.202927 78.281479,159.814667 78.281479,154.940857 
	C86.274887,154.940857 94.215622,154.940857 102.621445,154.947418 
z"/>
<path fill="#F8F8F7" opacity="1.000000" stroke="none" 
	d="
M146.264099,151.478882 
	C153.441177,149.423508 160.295990,147.636765 167.621857,145.727219 
	C168.810013,150.220764 169.965332,154.590073 171.282272,159.570663 
	C163.879929,161.504929 156.766983,163.363571 148.911621,165.416214 
	C147.871033,160.626816 146.906433,156.187149 146.264099,151.478882 
z"/>
<path fill="#F8F8F7" opacity="1.000000" stroke="none" 
	d="
M119.034409,50.922653 
	C118.595612,48.944649 118.210419,47.369736 117.712677,45.334644 
	C125.514893,43.387630 132.946152,41.533184 140.550949,39.635429 
	C141.625031,44.028580 142.590317,47.976730 143.635178,52.250389 
	C135.996155,54.152077 128.720749,55.963245 121.093605,57.861977 
	C120.413338,55.644978 119.750679,53.485359 119.034409,50.922653 
z"/>
<path fill="#1B1B1B" opacity="1.000000" stroke="none" 
	d="
M77.873199,59.154305 
	C78.208984,80.435234 78.120872,101.754120 78.048920,123.073067 
	C78.025299,130.070251 78.043571,137.067566 78.012238,144.532654 
	C77.321762,143.709579 76.091469,142.421143 76.085869,141.127411 
	C75.973198,115.080856 75.980995,89.033623 76.062996,62.986835 
	C76.066986,61.720535 76.970795,60.457073 77.873199,59.154305 
z"/>
</svg>